<svg width="40" height="40" viewBox="0 0 40 40" fill="none" xmlns="http://www.w3.org/2000/svg">
<path d="M20 2.08333C29.8834 2.08333 37.9167 10.1167 37.9167 20C37.9167 29.8833 29.8834 37.9167 20 37.9167C10.1167 37.9167 2.08335 29.8833 2.08335 20C2.08335 10.1167 10.1167 2.08333 20 2.08333ZM20 35.4167C28.5 35.4167 35.4167 28.5 35.4167 20C35.4167 11.5 28.5 4.58333 20 4.58333C11.5 4.58333 4.58335 11.5 4.58335 20C4.58335 28.5 11.5 35.4167 20 35.4167Z" fill="white"/>
<path d="M15.8333 18.75H25.8333C26.5166 18.75 27.0833 19.3167 27.0833 20C27.0833 20.6833 26.5166 21.25 25.8333 21.25H15.8333C15.15 21.25 14.5833 20.6833 14.5833 20C14.5833 19.3167 15.15 18.75 15.8333 18.75Z" fill="white"/>
<path d="M19.1709 13.7542C19.4875 13.7542 19.8042 13.8708 20.0542 14.1208C20.5375 14.6042 20.5375 15.4042 20.0542 15.8875L15.9375 20.0042L20.0542 24.1208C20.5375 24.6042 20.5375 25.4042 20.0542 25.8875C19.5709 26.3708 18.7709 26.3708 18.2875 25.8875L13.2875 20.8875C12.8042 20.4042 12.8042 19.6042 13.2875 19.1208L18.2875 14.1208C18.5375 13.8708 18.8542 13.7542 19.1709 13.7542Z" fill="white"/>
</svg>
