<svg width="28" height="24" viewBox="0 0 28 24" fill="none" xmlns="http://www.w3.org/2000/svg">
<path d="M11.4543 15.2819C11.2379 15.2819 11.0215 15.2119 10.8507 15.0619C9.9168 14.2419 9.4043 13.1519 9.4043 12.0019C9.4043 9.61187 11.6137 7.67188 14.3357 7.67188C15.6454 7.67188 16.8868 8.12187 17.8207 8.94187C17.9801 9.08187 18.0712 9.27188 18.0712 9.47188C18.0712 9.67188 17.9801 9.86187 17.8207 10.0019L12.0579 15.0619C11.8871 15.2119 11.6707 15.2819 11.4543 15.2819ZM14.3357 9.17188C12.559 9.17188 11.1126 10.4419 11.1126 12.0019C11.1126 12.5019 11.2607 12.9819 11.534 13.4019L15.9301 9.54187C15.4518 9.30187 14.9051 9.17188 14.3357 9.17188Z" fill="#7C7C7C"/>
<path d="M7.04866 18.5066C6.85505 18.5066 6.65005 18.4466 6.49061 18.3266C5.27199 17.4166 4.17866 16.2966 3.24477 14.9966C2.03755 13.3466 2.03755 10.6566 3.24477 8.99656C6.02366 5.17656 10.0667 2.97656 14.3376 2.97656C16.8431 2.97656 19.3145 3.73656 21.4784 5.16656C21.8542 5.41656 21.9339 5.88656 21.6492 6.21656C21.3645 6.54656 20.8292 6.61656 20.4534 6.36656C18.5856 5.12656 16.4673 4.47656 14.3376 4.47656C10.6589 4.47656 7.13977 6.41656 4.67977 9.80656C3.82561 10.9766 3.82561 13.0166 4.67977 14.1866C5.53394 15.3566 6.51338 16.3666 7.59533 17.1866C7.94838 17.4566 7.99394 17.9266 7.68644 18.2466C7.52699 18.4166 7.28783 18.5066 7.04866 18.5066Z" fill="#7C7C7C"/>
<path d="M14.3363 21.0195C12.8215 21.0195 11.341 20.7495 9.91738 20.2195C9.4846 20.0595 9.2796 19.6195 9.46182 19.2395C9.64404 18.8595 10.1452 18.6795 10.5779 18.8395C11.7852 19.2895 13.0493 19.5195 14.3249 19.5195C18.0035 19.5195 21.5227 17.5795 23.9827 14.1895C24.8368 13.0195 24.8368 10.9795 23.9827 9.80951C23.6296 9.31951 23.2424 8.84951 22.8324 8.40951C22.5363 8.08951 22.5932 7.61951 22.9577 7.34951C23.3221 7.08951 23.8574 7.12951 24.1649 7.45951C24.609 7.93951 25.0418 8.45951 25.429 8.99951C26.6363 10.6495 26.6363 13.3395 25.429 14.9995C22.6502 18.8195 18.6071 21.0195 14.3363 21.0195Z" fill="#7C7C7C"/>
<path d="M15.1212 16.2723C14.7226 16.2723 14.3582 16.0223 14.2784 15.6623C14.1873 15.2523 14.4948 14.8623 14.9618 14.7923C16.2146 14.5923 17.2623 13.6723 17.4901 12.5723C17.5812 12.1623 18.0254 11.9023 18.4923 11.9723C18.9593 12.0523 19.2668 12.4423 19.1757 12.8523C18.8112 14.5823 17.2396 15.9523 15.2807 16.2723C15.2237 16.2623 15.1782 16.2723 15.1212 16.2723Z" fill="#7C7C7C"/>
<path d="M2.94165 22.7487C2.72526 22.7487 2.50887 22.6788 2.33804 22.5288C2.00776 22.2388 2.00776 21.7587 2.33804 21.4687L10.8455 13.9988C11.1758 13.7088 11.7225 13.7088 12.0528 13.9988C12.383 14.2887 12.383 14.7688 12.0528 15.0588L3.54526 22.5288C3.37443 22.6788 3.15804 22.7487 2.94165 22.7487Z" fill="#7C7C7C"/>
<path d="M17.2134 10.2175C16.997 10.2175 16.7806 10.1475 16.6098 9.9975C16.2795 9.7075 16.2795 9.2275 16.6098 8.9375L25.1173 1.4675C25.4475 1.1775 25.9942 1.1775 26.3245 1.4675C26.6548 1.7575 26.6548 2.2375 26.3245 2.5275L17.817 9.9975C17.6462 10.1475 17.4298 10.2175 17.2134 10.2175Z" fill="#7C7C7C"/>
</svg>
